<svg width="217" height="46" xmlns="http://www.w3.org/2000/svg" fill="none">

 <g>
  <title>Layer 1</title>
  <path id="svg_1" fill="#5F6FFF" d="m22.9997,0c12.7029,0 23,10.2971 23,23l0,16.1c0,1.83 -0.7269,3.585 -2.0209,4.879c-1.294,1.294 -3.0491,2.021 -4.8791,2.021l-14.95,0l0,-10.0901c0,-2.3023 0.1403,-4.6874 1.3478,-6.647c0.8645,-1.4043 2.021,-2.6063 3.3909,-3.5244c1.3699,-0.9181 2.9212,-1.5308 4.5487,-1.7966l0.4405,-0.0713c0.1816,-0.0621 0.3392,-0.1794 0.4508,-0.3355c0.1116,-0.1561 0.1716,-0.3432 0.1716,-0.5351c0,-0.1919 -0.06,-0.379 -0.1716,-0.5351c-0.1116,-0.1561 -0.2692,-0.2734 -0.4508,-0.3355l-0.4405,-0.0713c-2.378,-0.3884 -4.5739,-1.514 -6.2777,-3.2178c-1.7038,-1.7038 -2.8293,-3.8997 -3.2178,-6.2777l-0.0713,-0.4404c-0.0621,-0.1816 -0.1794,-0.3393 -0.3355,-0.4509c-0.1561,-0.1116 -0.3432,-0.1716 -0.5351,-0.1716c-0.1919,0 -0.3789,0.06 -0.535,0.1716c-0.1561,0.1116 -0.2734,0.2693 -0.3355,0.4509l-0.0713,0.4404c-0.2657,1.6276 -0.8784,3.1789 -1.7965,4.5488c-0.9181,1.37 -2.1202,2.5264 -3.5246,3.3908c-1.9596,1.2075 -4.3447,1.3478 -6.647,1.3478l-10.06246,0c0.60145,-12.16815 10.65586,-21.85 22.97236,-21.85z"/>
  <path id="svg_2" fill="#5F6FFF" d="m0,24.15l10.0901,0c2.3023,0 4.6874,0.1403 6.647,1.3478c1.5318,0.9439 2.8212,2.2333 3.7651,3.7651c1.2075,1.9596 1.3478,4.3447 1.3478,6.647l0,10.0901l-14.95,0c-1.82999,0 -3.58504,-0.727 -4.87904,-2.021c-1.294,-1.294 -2.02096,-3.049 -2.02096,-4.879l0,-14.95zm46,-21.85c0,0.61 -0.2423,1.19501 -0.6737,1.62635c-0.4313,0.43133 -1.0163,0.67365 -1.6263,0.67365c-0.61,0 -1.195,-0.24232 -1.6263,-0.67365c-0.4314,-0.43134 -0.6737,-1.01635 -0.6737,-1.62635c0,-0.61 0.2423,-1.19501 0.6737,-1.62635c0.4313,-0.43133 1.0163,-0.67365 1.6263,-0.67365c0.61,0 1.195,0.24232 1.6263,0.67365c0.4314,0.43134 0.6737,1.01635 0.6737,1.62635z"/>
  <text transform="matrix(1.09561 0 0 1.01679 -5.78938 -0.79724)" stroke="null" font-weight="bold" xml:space="preserve" text-anchor="start" font-family="'Signika'" font-size="24" stroke-width="0" id="svg_4" y="38.63432" x="49.38906" fill="#0404f7">LifehealthCare</text>
 </g>
</svg>